<?xml version="1.0" encoding="iso-8859-1"?>
<!-- Generator: Adobe Illustrator 18.1.1, SVG Export Plug-In . SVG Version: 6.00 Build 0)  -->
<svg version="1.1" id="Capa_1" xmlns="http://www.w3.org/2000/svg" xmlns:xlink="http://www.w3.org/1999/xlink" x="0px" y="0px"
	 viewBox="0 0 26.137 26.137" style="enable-background:new 0 0 26.137 26.137;" xml:space="preserve">
<g>
	<g>
		<g>
			<path style="fill:#010002;" d="M25.919,23.77h0.005h0.006c0.114-0.002,0.207-0.096,0.207-0.211l0,0v-1.391
				c0-0.117-0.096-0.212-0.213-0.212c-0.115,0-0.21,0.095-0.211,0.21v1.395C25.714,23.676,25.807,23.768,25.919,23.77z"/>
			<path style="fill:#010002;" d="M25.26,23.77h0.006h0.006c0.113-0.002,0.205-0.096,0.205-0.211l0,0v-3.838
				c0-0.117-0.095-0.213-0.211-0.213c-0.115,0-0.211,0.094-0.211,0.209v3.844C25.055,23.676,25.146,23.768,25.26,23.77z"/>
			<path style="fill:#010002;" d="M24.602,23.77h0.004h0.006c0.115-0.002,0.207-0.096,0.207-0.211l0,0v-5.935
				c0-0.116-0.096-0.212-0.213-0.212c-0.115,0-0.209,0.094-0.211,0.209v5.939C24.396,23.676,24.486,23.768,24.602,23.77z"/>
			<path style="fill:#010002;" d="M23.941,23.77h0.004h0.007c0.114-0.002,0.206-0.096,0.206-0.211l0,0v-8.406
				c0-0.116-0.096-0.212-0.213-0.212c-0.115,0-0.209,0.094-0.211,0.209v8.411C23.736,23.676,23.827,23.768,23.941,23.77z"/>
			<path style="fill:#010002;" d="M23.281,23.77h0.006h0.006c0.114-0.002,0.206-0.096,0.206-0.211l0,0v-9.521
				c0-0.117-0.095-0.212-0.212-0.212c-0.116,0-0.21,0.094-0.212,0.209v9.526C23.077,23.676,23.168,23.768,23.281,23.77z"/>
			<path style="fill:#010002;" d="M22.623,23.77h0.005h0.005c0.115-0.002,0.207-0.096,0.207-0.211l0,0v-7.795
				c0-0.116-0.095-0.211-0.212-0.211c-0.116,0-0.21,0.094-0.212,0.209v7.799C22.417,23.676,22.509,23.768,22.623,23.77z"/>
			<path style="fill:#010002;" d="M21.963,23.77h0.006h0.006c0.114-0.002,0.205-0.096,0.205-0.211l0,0v-9.756
				c0-0.117-0.094-0.212-0.211-0.212c-0.115,0-0.211,0.094-0.212,0.209v9.761C21.758,23.676,21.85,23.768,21.963,23.77z"/>
			<path style="fill:#010002;" d="M21.305,23.77h0.006h0.004c0.115-0.002,0.207-0.096,0.207-0.211l0,0v-6.993
				c0-0.117-0.095-0.212-0.211-0.212c-0.117,0-0.211,0.094-0.213,0.209v6.998C21.1,23.676,21.189,23.768,21.305,23.77z"/>
			<path style="fill:#010002;" d="M20.645,23.77h0.006h0.006c0.113-0.002,0.207-0.096,0.207-0.211l0,0V12.751
				c0-0.117-0.096-0.212-0.213-0.212c-0.115,0-0.211,0.094-0.213,0.209v10.813C20.439,23.676,20.531,23.768,20.645,23.77z"/>
			<path style="fill:#010002;" d="M19.984,23.77h0.007h0.005c0.115-0.002,0.207-0.096,0.207-0.211l0,0V11.01
				c0-0.117-0.096-0.212-0.212-0.212c-0.117,0-0.212,0.093-0.212,0.209v12.556C19.779,23.676,19.871,23.768,19.984,23.77z"/>
			<path style="fill:#010002;" d="M19.326,23.77h0.005h0.006c0.114-0.002,0.206-0.096,0.206-0.211l0,0V7.619
				c0-0.117-0.095-0.212-0.212-0.212c-0.116,0-0.21,0.093-0.211,0.209v15.945C19.121,23.676,19.213,23.768,19.326,23.77z"/>
			<path style="fill:#010002;" d="M18.666,23.77h0.006h0.006c0.114-0.002,0.206-0.096,0.206-0.211l0,0V4.729
				c0-0.117-0.095-0.212-0.212-0.212c-0.115,0-0.21,0.094-0.212,0.209V23.56C18.461,23.676,18.553,23.768,18.666,23.77z"/>
			<path style="fill:#010002;" d="M18.008,23.77h0.006h0.006c0.113-0.002,0.205-0.096,0.205-0.211l0,0v-15
				c0-0.117-0.095-0.212-0.211-0.212c-0.117,0-0.211,0.094-0.213,0.21v15.003C17.803,23.676,17.895,23.768,18.008,23.77z"/>
			<path style="fill:#010002;" d="M17.348,23.77h0.006h0.006c0.113-0.002,0.207-0.096,0.207-0.211l0,0V12.94
				c0-0.117-0.096-0.212-0.213-0.212c-0.115,0-0.209,0.093-0.211,0.209v10.625C17.143,23.676,17.234,23.768,17.348,23.77z"/>
			<path style="fill:#010002;" d="M16.688,23.77h0.006H16.7c0.115-0.002,0.207-0.096,0.207-0.211l0,0v-7.864
				c0-0.117-0.096-0.212-0.213-0.212c-0.115,0-0.209,0.094-0.211,0.209v7.869C16.484,23.676,16.575,23.768,16.688,23.77z"/>
			<path style="fill:#010002;" d="M16.029,23.77h0.006h0.006c0.113-0.002,0.206-0.096,0.206-0.211l0,0V12.516
				c0-0.117-0.095-0.212-0.212-0.212c-0.116,0-0.211,0.094-0.212,0.209v11.048C15.824,23.676,15.916,23.768,16.029,23.77z"/>
			<path style="fill:#010002;" d="M15.37,23.77h0.006h0.006c0.114-0.002,0.206-0.096,0.206-0.211l0,0V6.456
				c0-0.117-0.096-0.212-0.212-0.212s-0.211,0.094-0.213,0.209V23.56C15.165,23.676,15.257,23.768,15.37,23.77z"/>
			<path style="fill:#010002;" d="M14.711,23.77h0.006h0.006c0.113-0.002,0.205-0.096,0.205-0.211l0,0V2.58
				c0-0.117-0.095-0.212-0.211-0.212c-0.117,0-0.211,0.093-0.212,0.209v20.984C14.506,23.676,14.598,23.768,14.711,23.77z"/>
			<path style="fill:#010002;" d="M14.052,23.77h0.005h0.006c0.114-0.002,0.207-0.096,0.207-0.211l0,0V4.352
				c0-0.117-0.096-0.212-0.213-0.212c-0.115,0-0.209,0.094-0.21,0.209V23.56C13.847,23.676,13.938,23.768,14.052,23.77z"/>
			<path style="fill:#010002;" d="M13.393,23.77h0.005h0.006c0.114-0.002,0.206-0.096,0.206-0.211l0,0V7.964
				c0-0.116-0.095-0.212-0.212-0.212c-0.116,0-0.21,0.094-0.212,0.21v15.602C13.188,23.676,13.278,23.768,13.393,23.77z"/>
			<path style="fill:#010002;" d="M12.733,23.77h0.005h0.006c0.114-0.002,0.206-0.096,0.206-0.211l0,0V10.821
				c0-0.117-0.095-0.212-0.212-0.212c-0.116,0-0.21,0.093-0.212,0.209v12.743C12.527,23.676,12.619,23.768,12.733,23.77z"/>
			<path style="fill:#010002;" d="M12.074,23.77h0.005h0.006c0.114-0.002,0.206-0.096,0.206-0.211l0,0V8.371
				c0-0.117-0.095-0.212-0.212-0.212c-0.116,0-0.21,0.094-0.212,0.21V23.56C11.868,23.676,11.96,23.768,12.074,23.77z"/>
			<path style="fill:#010002;" d="M11.415,23.77h0.005h0.006c0.114-0.002,0.206-0.096,0.206-0.211l0,0V6.128
				c0-0.117-0.095-0.212-0.212-0.212c-0.116,0-0.211,0.093-0.212,0.209v17.438C11.209,23.676,11.301,23.768,11.415,23.77z"/>
			<path style="fill:#010002;" d="M10.755,23.77h0.006h0.006c0.114-0.002,0.206-0.096,0.206-0.211l0,0V10.633
				c0-0.117-0.095-0.212-0.212-0.212c-0.116,0-0.21,0.094-0.212,0.209v12.933C10.551,23.676,10.642,23.768,10.755,23.77z"/>
			<path style="fill:#010002;" d="M10.096,23.77h0.006h0.005c0.115-0.002,0.207-0.096,0.207-0.211l0,0V12.453
				c0-0.116-0.096-0.211-0.212-0.211s-0.211,0.093-0.212,0.209v11.11C9.891,23.676,9.982,23.768,10.096,23.77z"/>
			<path style="fill:#010002;" d="M9.437,23.77h0.006h0.005c0.115-0.002,0.207-0.096,0.207-0.211l0,0v-11.75
				c0-0.117-0.095-0.212-0.212-0.212c-0.116,0-0.211,0.093-0.212,0.209V23.56C9.231,23.676,9.323,23.768,9.437,23.77z"/>
			<path style="fill:#010002;" d="M8.777,23.77h0.006h0.005c0.115-0.002,0.207-0.096,0.207-0.211l0,0v-9.756
				c0-0.117-0.096-0.212-0.212-0.212S8.572,13.684,8.571,13.8v9.761C8.572,23.676,8.664,23.768,8.777,23.77z"/>
			<path style="fill:#010002;" d="M8.118,23.77h0.005h0.006c0.114-0.002,0.206-0.096,0.206-0.211l0,0V14.83
				c0-0.117-0.095-0.212-0.212-0.212c-0.116,0-0.21,0.093-0.211,0.209v8.733C7.913,23.676,8.004,23.768,8.118,23.77z"/>
			<path style="fill:#010002;" d="M7.459,23.77h0.005H7.47c0.115-0.002,0.206-0.096,0.206-0.211l0,0v-9.858
				c0-0.117-0.095-0.212-0.212-0.212c-0.116,0-0.21,0.094-0.212,0.21v9.862C7.254,23.676,7.345,23.768,7.459,23.77z"/>
			<path style="fill:#010002;" d="M6.799,23.77h0.006h0.006c0.114-0.002,0.206-0.096,0.206-0.211l0,0V8.795
				c0-0.117-0.095-0.212-0.212-0.212c-0.116,0-0.21,0.094-0.212,0.21v14.77C6.595,23.676,6.686,23.768,6.799,23.77z"/>
			<path style="fill:#010002;" d="M6.141,23.77h0.005h0.006c0.114-0.002,0.206-0.096,0.206-0.211l0,0V10.672
				c0-0.117-0.095-0.212-0.212-0.212c-0.116,0-0.21,0.093-0.212,0.209v12.895C5.936,23.676,6.026,23.768,6.141,23.77z"/>
			<path style="fill:#010002;" d="M5.48,23.77h0.006h0.006c0.114-0.002,0.206-0.096,0.206-0.211l0,0V13.278
				c0-0.117-0.095-0.212-0.212-0.212c-0.116,0-0.211,0.093-0.212,0.209v10.286C5.275,23.676,5.367,23.768,5.48,23.77z"/>
			<path style="fill:#010002;" d="M4.821,23.77h0.006h0.006c0.114-0.002,0.206-0.096,0.206-0.211l0,0v-8.822
				c0-0.117-0.095-0.212-0.212-0.212c-0.116,0-0.211,0.094-0.212,0.21v8.826C4.616,23.676,4.708,23.768,4.821,23.77z"/>
			<path style="fill:#010002;" d="M4.162,23.77h0.006h0.005c0.115-0.002,0.206-0.096,0.206-0.211l0,0v-9.795
				c0-0.117-0.094-0.212-0.211-0.212c-0.116,0-0.21,0.093-0.212,0.209v9.8C3.957,23.676,4.049,23.768,4.162,23.77z"/>
			<path style="fill:#010002;" d="M3.503,23.77h0.006h0.005c0.115-0.002,0.207-0.096,0.207-0.211l0,0v-4.324
				c0-0.117-0.096-0.213-0.212-0.213s-0.211,0.094-0.212,0.21v4.329C3.298,23.676,3.39,23.768,3.503,23.77z"/>
			<path style="fill:#010002;" d="M2.844,23.77H2.85h0.005c0.115-0.002,0.206-0.096,0.206-0.211l0,0v-8.28
				c0-0.117-0.094-0.212-0.211-0.212c-0.116,0-0.211,0.093-0.213,0.209v8.285C2.639,23.676,2.73,23.768,2.844,23.77z"/>
			<path style="fill:#010002;" d="M2.185,23.77H2.19h0.006c0.114-0.002,0.206-0.096,0.206-0.211l0,0v-8.987
				c0-0.116-0.095-0.211-0.212-0.211c-0.116,0-0.21,0.093-0.212,0.209v8.991C1.979,23.676,2.071,23.768,2.185,23.77z"/>
			<path style="fill:#010002;" d="M1.525,23.77h0.006h0.005c0.114-0.002,0.206-0.096,0.206-0.211l0,0v-5.824
				c0-0.116-0.095-0.212-0.211-0.212c-0.117,0-0.211,0.094-0.213,0.21v5.828C1.32,23.676,1.411,23.768,1.525,23.77z"/>
			<path style="fill:#010002;" d="M0.866,23.77h0.005h0.006c0.114-0.002,0.206-0.096,0.206-0.211l0,0v-2.756
				c0-0.117-0.095-0.211-0.212-0.211c-0.116,0-0.21,0.094-0.212,0.209v2.76C0.661,23.676,0.752,23.768,0.866,23.77z"/>
			<path style="fill:#010002;" d="M0.206,23.77h0.006h0.006c0.114-0.002,0.206-0.096,0.206-0.211l0,0v-1.438
				c0-0.117-0.095-0.212-0.212-0.212c-0.116,0-0.21,0.094-0.212,0.209v1.442C0.002,23.676,0.093,23.768,0.206,23.77z"/>
		</g>
	</g>
</g>
<g>
</g>
<g>
</g>
<g>
</g>
<g>
</g>
<g>
</g>
<g>
</g>
<g>
</g>
<g>
</g>
<g>
</g>
<g>
</g>
<g>
</g>
<g>
</g>
<g>
</g>
<g>
</g>
<g>
</g>
</svg>
