<svg enable-background="new 0 0 26.137 26.137" viewBox="0 0 26.137 26.137" xmlns="http://www.w3.org/2000/svg"><g fill="#010002"><path d="m25.919 23.77h.005.006c.114-.002.207-.096.207-.211v-1.391c0-.117-.096-.212-.213-.212-.115 0-.21.095-.211.21v1.395c.001.115.094.207.206.209z"/><path d="m25.26 23.77h.006.006c.113-.002.205-.096.205-.211v-3.838c0-.117-.095-.213-.211-.213-.115 0-.211.094-.211.209v3.844c0 .115.091.207.205.209z"/><path d="m24.602 23.77h.004.006c.115-.002.207-.096.207-.211v-5.935c0-.116-.096-.212-.213-.212-.115 0-.209.094-.211.209v5.939c.001.116.091.208.207.21z"/><path d="m23.941 23.77h.004.007c.114-.002.206-.096.206-.211v-8.406c0-.116-.096-.212-.213-.212-.115 0-.209.094-.211.209v8.411c.002.115.093.207.207.209z"/><path d="m23.281 23.77h.006.006c.114-.002.206-.096.206-.211v-9.521c0-.117-.095-.212-.212-.212-.116 0-.21.094-.212.209v9.526c.002.115.093.207.206.209z"/><path d="m22.623 23.77h.005.005c.115-.002.207-.096.207-.211v-7.795c0-.116-.095-.211-.212-.211-.116 0-.21.094-.212.209v7.799c.001.115.093.207.207.209z"/><path d="m21.963 23.77h.006.006c.114-.002.205-.096.205-.211v-9.756c0-.117-.094-.212-.211-.212-.115 0-.211.094-.212.209v9.761c.001.115.093.207.206.209z"/><path d="m21.305 23.77h.006.004c.115-.002.207-.096.207-.211v-6.993c0-.117-.095-.212-.211-.212-.117 0-.211.094-.213.209v6.998c.002.115.091.207.207.209z"/><path d="m20.645 23.77h.006.006c.113-.002.207-.096.207-.211v-10.808c0-.117-.096-.212-.213-.212-.115 0-.211.094-.213.209v10.813c.001.115.093.207.207.209z"/><path d="m19.984 23.77h.007.005c.115-.002.207-.096.207-.211v-12.549c0-.117-.096-.212-.212-.212-.117 0-.212.093-.212.209v12.556c0 .113.092.205.205.207z"/><path d="m19.326 23.77h.005.006c.114-.002.206-.096.206-.211v-15.94c0-.117-.095-.212-.212-.212-.116 0-.21.093-.211.209v15.945c.001.115.093.207.206.209z"/><path d="m18.666 23.77h.006.006c.114-.002.206-.096.206-.211v-18.83c0-.117-.095-.212-.212-.212-.115 0-.21.094-.212.209v18.834c.001.116.093.208.206.21z"/><path d="m18.008 23.77h.006.006c.113-.002.205-.096.205-.211v-15c0-.117-.095-.212-.211-.212-.117 0-.211.094-.213.21v15.003c.002.116.094.208.207.21z"/><path d="m17.348 23.77h.006.006c.113-.002.207-.096.207-.211v-10.619c0-.117-.096-.212-.213-.212-.115 0-.209.093-.211.209v10.625c0 .114.091.206.205.208z"/><path d="m16.688 23.77h.006.006c.115-.002.207-.096.207-.211v-7.864c0-.117-.096-.212-.213-.212-.115 0-.209.094-.211.209v7.869c.001.115.092.207.205.209z"/><path d="m16.029 23.77h.006.006c.113-.002.206-.096.206-.211v-11.043c0-.117-.095-.212-.212-.212-.116 0-.211.094-.212.209v11.048c.001.115.093.207.206.209z"/><path d="m15.37 23.77h.006.006c.114-.002.206-.096.206-.211v-17.103c0-.117-.096-.212-.212-.212s-.211.094-.213.209v17.107c.002.116.094.208.207.21z"/><path d="m14.711 23.77h.006.006c.113-.002.205-.096.205-.211v-20.979c0-.117-.095-.212-.211-.212-.117 0-.211.093-.212.209v20.984c.001.115.093.207.206.209z"/><path d="m14.052 23.77h.005.006c.114-.002.207-.096.207-.211v-19.207c0-.117-.096-.212-.213-.212-.115 0-.209.094-.21.209v19.211c0 .116.091.208.205.21z"/><path d="m13.393 23.77h.005.006c.114-.002.206-.096.206-.211v-15.595c0-.116-.095-.212-.212-.212-.116 0-.21.094-.212.21v15.602c.002.112.092.204.207.206z"/><path d="m12.733 23.77h.005.006c.114-.002.206-.096.206-.211v-12.738c0-.117-.095-.212-.212-.212-.116 0-.21.093-.212.209v12.743c.001.115.093.207.207.209z"/><path d="m12.074 23.77h.005.006c.114-.002.206-.096.206-.211v-15.188c0-.117-.095-.212-.212-.212-.116 0-.21.094-.212.21v15.191c.001.116.093.208.207.21z"/><path d="m11.415 23.77h.005.006c.114-.002.206-.096.206-.211v-17.431c0-.117-.095-.212-.212-.212-.116 0-.211.093-.212.209v17.438c.001.113.093.205.207.207z"/><path d="m10.755 23.77h.006.006c.114-.002.206-.096.206-.211v-12.926c0-.117-.095-.212-.212-.212-.116 0-.21.094-.212.209v12.933c.002.113.093.205.206.207z"/><path d="m10.096 23.77h.006.005c.115-.002.207-.096.207-.211v-11.106c0-.116-.096-.211-.212-.211s-.211.093-.212.209v11.11c.001.115.092.207.206.209z"/><path d="m9.437 23.77h.006.005c.115-.002.207-.096.207-.211v-11.75c0-.117-.095-.212-.212-.212-.116 0-.211.093-.212.209v11.754c0 .116.092.208.206.21z"/><path d="m8.777 23.77h.006.005c.115-.002.207-.096.207-.211v-9.756c0-.117-.096-.212-.212-.212s-.211.093-.212.209v9.761c.001.115.093.207.206.209z"/><path d="m8.118 23.77h.005.006c.114-.002.206-.096.206-.211v-8.729c0-.117-.095-.212-.212-.212-.116 0-.21.093-.211.209v8.733c.001.116.092.208.206.21z"/><path d="m7.459 23.77h.005.006c.115-.002.206-.096.206-.211v-9.858c0-.117-.095-.212-.212-.212-.116 0-.21.094-.212.21v9.862c.002.115.093.207.207.209z"/><path d="m6.799 23.77h.006.006c.114-.002.206-.096.206-.211v-14.764c0-.117-.095-.212-.212-.212-.116 0-.21.094-.212.21v14.77c.002.113.093.205.206.207z"/><path d="m6.141 23.77h.005.006c.114-.002.206-.096.206-.211v-12.887c0-.117-.095-.212-.212-.212-.116 0-.21.093-.212.209v12.895c.002.112.092.204.207.206z"/><path d="m5.48 23.77h.006.006c.114-.002.206-.096.206-.211v-10.281c0-.117-.095-.212-.212-.212-.116 0-.211.093-.212.209v10.286c.001.115.093.207.206.209z"/><path d="m4.821 23.77h.006.006c.114-.002.206-.096.206-.211v-8.822c0-.117-.095-.212-.212-.212-.116 0-.211.094-.212.21v8.826c.001.115.093.207.206.209z"/><path d="m4.162 23.77h.006.005c.115-.002.206-.096.206-.211v-9.795c0-.117-.094-.212-.211-.212-.116 0-.21.093-.212.209v9.8c.001.115.093.207.206.209z"/><path d="m3.503 23.77h.006.005c.115-.002.207-.096.207-.211v-4.324c0-.117-.096-.213-.212-.213s-.211.094-.212.21v4.329c.001.115.093.207.206.209z"/><path d="m2.844 23.77h.006.005c.115-.002.206-.096.206-.211v-8.28c0-.117-.094-.212-.211-.212-.116 0-.211.093-.213.209v8.285c.002.115.093.207.207.209z"/><path d="m2.185 23.77h.005.006c.114-.002.206-.096.206-.211v-8.987c0-.116-.095-.211-.212-.211-.116 0-.21.093-.212.209v8.991c.001.115.093.207.207.209z"/><path d="m1.525 23.77h.006.005c.114-.002.206-.096.206-.211v-5.824c0-.116-.095-.212-.211-.212-.117 0-.211.094-.213.21v5.828c.002.115.093.207.207.209z"/><path d="m.866 23.77h.005.006c.114-.002.206-.096.206-.211v-2.756c0-.117-.095-.211-.212-.211-.116 0-.21.094-.212.209v2.76c.002.115.093.207.207.209z"/><path d="m.206 23.77h.006.006c.114-.002.206-.096.206-.211v-1.438c0-.117-.095-.212-.212-.212-.116 0-.21.094-.212.209v1.442c.002.116.093.208.206.21z"/></g></svg>